# ProBuilder 4.5.2
# https://unity3d.com/unity/features/worldbuilding/probuilder
# 11/30/2021 5:41:27 PM

mtllib ./PolyBee.mtl
o PolyBee

g PolyBee
v -0.6385672 0.6696627 0.58
v -0.5677457 0.582 0.6572542
v -0.6927457 0.6592543 0.705
v -0.5573373 0.457 0.7114328
v -0.645 0.5342543 0.7822542
v -0.77 0.5884328 0.7926627
v -0.77 0.707 0.58
v -0.8472542 0.6592543 0.705
v -0.9014328 0.6696627 0.58
v -0.6927457 0.6592543 0.455
v -0.8472542 0.6592543 0.455
v -0.7682517 0.707516 0.582119
v -0.845506 0.6597703 0.457119
v -0.6909974 0.6597703 0.457119
v -0.77 0.5884328 0.3673373
v -0.4810568 0.8754857 0.4444943
v -0.5352354 0.8650773 0.3194943
v -0.4102354 0.787823 0.3672391
v -0.645 0.5342543 0.3777457
v -0.5677457 0.582 0.5027457
v -0.5573373 0.457 0.4485672
v -0.52 0.457 0.58
v -0.9722542 0.582 0.6572542
v -0.895 0.5342543 0.7822542
v -0.9826627 0.457 0.7114328
v -0.77 0.457 0.83
v -0.645 0.3797458 0.7822542
v -0.77 0.3255672 0.7926627
v -0.5677457 0.332 0.6572542
v -0.5677457 0.332 0.5027457
v -0.6385672 0.2443373 0.58
v -0.645 0.3797458 0.3777457
v -0.77 0.457 0.1435319
v -0.77 0.3255672 0.3673373
v -0.895 0.5342543 0.3777457
v -0.9946055 0.8519175 0.3186856
v -1.048784 0.8623259 0.4436856
v -1.119606 0.7746632 0.3664303
v -0.9722542 0.582 0.5027457
v -0.9826627 0.457 0.4485672
v -0.9014328 0.2443373 0.58
v -0.9722542 0.332 0.6572542
v -0.8472542 0.2547458 0.705
v -0.895 0.3797458 0.7822542
v -0.77 0.207 0.58
v -0.6927457 0.2547458 0.705
v -0.8472542 0.2547458 0.455
v -0.6927457 0.2547458 0.455
v -0.9722542 0.332 0.5027457
v -0.895 0.3797458 0.3777457
v -1.02 0.457 0.58
v -0.7687017 0.7100251 0.5811043
v -0.845956 0.6622794 0.4561043
v -0.6914474 0.6622794 0.4561043

vt -0.2628655 0
vt -0.4045085 0.1545085
vt -0.1545085 0.25
vt -0.1545085 0.75
vt -0.2628655 0.5
vt -0.4045085 0.6545085
vt 0.4045085 0.75
vt 0.25 0.6545085
vt 0.1545085 0.9045085
vt 0 0.7628655
vt 0 0
vt 0 0.4253254
vt 0.1545085 0.25
vt 0.2628655 0
vt -0.1545085 -0.25
vt 0.1545085 -0.25
vt 0 -0.4253254
vt -0.4045085 -0.1545085
vt -0.1545085 0.9045085
vt -0.25 0.6545085
vt -0.4045085 0.75
vt 0.1545085 0.75
vt 0.4045085 0.6545085
vt 0.2628655 0.5
vt 0 0.9253254
vt 0 0.5
vt 0.4045085 0.1545085
vt 0.4253254 0.5
vt 0.25 0.3454915
vt 0 0.2371345
vt 0 0.07467461
vt -0.4253254 0.5
vt -0.25 0.3454915
vt 0.4045085 -0.1545085
vt 0.4045085 0.3454915
vt -0.4045085 0.25
vt -0.1545085 0.0954915
vt 0.1545085 0.0954915
vt 0.4045085 0.25
vt -0.4045085 0.3454915
vt 0 0.9788098
vt -0.2932129 0.881251
vt 0.003165248 0.9849909
vt -0.2900476 0.8874322
vt 0.1545085 0.7639299
vt -0.1545085 0.7639299
vt 0.151912 0.7703707
vt -0.1571052 0.7703707
vt 0.2889308 0.7617413
vt 0 0.8713337
vt 0.2890425 0.768685
vt 0.0001115919 0.8782772
vt 0.7456983 -0.3702575
vt 0.8374015 -0.1128373
vt 1.226165 -0.650978
vt 1.317869 -0.3935578
vt -0.1849254 0.9329047
vt -0.3943797 0.7573955
vt -0.5860047 1.318635
vt -0.7954603 1.143126
vt 0.4100226 0.6988285
vt 0.1637828 0.88553
vt 0.7147502 1.164441
vt 0.4685103 1.351141
vt 0.08694644 0.8441331
vt -0.1848226 0.8155636
vt -0.06461314 1.409082
vt -0.3363822 1.380512
vt -0.1587158 0.8941191
vt -0.4070646 0.7102322
vt -0.4782763 1.384036
vt -0.7266251 1.20015
vt 0.3971656 0.7595792
vt 0.187865 0.9352717
vt 0.8118653 1.172087
vt 0.6025634 1.34778
vt -0.003225602 1.004722
vt 0.2906242 0.9090984
vt -0.005429927 0.9996965
vt 0.2884199 0.9040733
vt -0.151912 0.9370429
vt 0.1571052 0.9370429
vt -0.1510119 0.9316298
vt 0.1580052 0.9316298
vt -0.2912603 0.8519495
vt 0.0008782951 0.9526796
vt -0.2898147 0.846656
vt 0.002323886 0.9473861

vn 0.2915644 0.3743917 0.157547
vn 0.3743917 0.1575469 0.2915644
vn 0.2886751 0.2886751 0.2886752
vn 0.1575469 0.2915644 0.3743917
vn 0.1340175 0.4717611 0.09736941
vn 0 0.3889338 0.3142141
vn 0 0.4670862 0.1784111
vn -0.1340175 0.4717611 0.09736941
vn 0.1340175 0.4717611 -0.09736941
vn -0.1340175 0.4717611 -0.09736941
vn 0 0.4670862 -0.1784109
vn 0 0.3889338 -0.3142141
vn 0.2915636 0.3743924 -0.1575467
vn 0.1575469 0.2915644 -0.3743917
vn 0.2886751 0.2886752 -0.2886752
vn 0.3743917 0.1575469 -0.2915644
vn 0.3889337 0.3142142 0
vn 0.4717611 0.09736935 -0.1340175
vn 0.4670862 0.1784111 0
vn 0.4717611 0.09736935 0.1340175
vn -0.2915644 0.3743917 0.157547
vn -0.1575469 0.2915644 0.3743917
vn -0.2886751 0.2886752 0.2886752
vn -0.3743917 0.1575469 0.2915644
vn 0.09736936 0.1340175 0.4717611
vn 0.3142142 0 0.3889337
vn 0.1784111 0 0.4670862
vn 0.09736936 -0.1340175 0.4717611
vn 0.4717611 -0.09736935 0.1340175
vn 0.4717611 -0.09736935 -0.1340175
vn 0.4670862 -0.1784111 0
vn 0.3889337 -0.3142142 0
vn 0.3142142 0 -0.3889337
vn 0.1920107 0.3980913 -0.2337845
vn 0.4411093 0 -0.2354201
vn 0.1920107 -0.3980913 -0.2337845
vn -0.1575469 0.2915644 -0.3743917
vn -0.2915636 0.3743924 -0.1575467
vn -0.2886751 0.2886752 -0.2886752
vn -0.3743917 0.1575469 -0.2915644
vn -0.2915644 -0.3743917 0.1575469
vn -0.3743917 -0.1575469 0.2915644
vn -0.2886751 -0.2886751 0.2886752
vn -0.1575469 -0.2915644 0.3743917
vn -0.1340175 -0.4717611 0.09736935
vn 0 -0.3889337 0.3142142
vn 0 -0.4670862 0.1784111
vn 0.1340175 -0.4717611 0.09736935
vn -0.1340175 -0.4717611 -0.09736935
vn 0.1340175 -0.4717611 -0.09736935
vn 0 -0.4670862 -0.1784111
vn 0 -0.3889337 -0.3142142
vn -0.2915644 -0.3743917 -0.1575469
vn -0.1575469 -0.2915644 -0.3743917
vn -0.2886752 -0.2886751 -0.2886752
vn -0.3743917 -0.1575469 -0.2915644
vn -0.3889337 -0.3142142 0
vn -0.4717611 -0.09736935 -0.1340175
vn -0.4670862 -0.1784111 0
vn -0.4717611 -0.09736935 0.1340175
vn -0.09736936 -0.1340175 0.4717611
vn -0.3142142 0 0.3889337
vn -0.1784111 0 0.4670862
vn -0.09736936 0.1340175 0.4717611
vn 0.2915644 -0.3743917 0.1575469
vn 0.1575469 -0.2915644 0.3743917
vn 0.2886752 -0.2886751 0.2886752
vn 0.3743917 -0.1575469 0.2915644
vn 0.1575469 -0.2915644 -0.3743917
vn 0.2915644 -0.3743917 -0.1575469
vn 0.2886752 -0.2886751 -0.2886752
vn 0.3743917 -0.1575469 -0.2915644
vn -0.3142142 0 -0.3889337
vn -0.1920107 -0.3980913 -0.2337845
vn -0.4411093 0 -0.2354201
vn -0.1920107 0.3980913 -0.2337845
vn -0.4717611 0.09736935 0.1340175
vn -0.4717611 0.09736935 -0.1340175
vn -0.4670862 0.1784111 0
vn -0.3889337 0.3142142 0
vn -0.4328394 0.1023858 0.2284015
vn 0 0.1714629 -0.4696813
vn 0.3224335 -0.2453454 0.2929885
vn 0.3413318 0.3453807 0.1191838
vn -0.3549764 -0.02287953 0.3513805
vn 0.0155305 -0.2806818 -0.4134931
vn -0.343815 0.342447 0.1205043
vn -0.007107473 -0.2711103 -0.420058
vn 0.3489945 -0.03230644 0.3565938
vn 0.4291596 -0.0262397 -0.2552127
vn 0 0.1874558 0.4635303
vn -0.4279841 -0.1591462 -0.2037205

usemtl BeeMaterial
f 3/3/1 2/2/1 1/1/1
f 5/6/2 4/5/2 2/4/2
f 3/9/3 5/8/3 2/7/3
f 6/10/4 5/8/4 3/9/4
f 7/11/5 3/3/5 1/1/5
f 8/13/6 6/12/6 3/3/6
f 7/11/7 8/13/7 3/3/7
f 9/14/8 8/13/8 7/11/8
f 10/15/9 7/11/9 1/1/9
f 11/16/10 9/14/10 7/11/10
f 14/15/11 13/16/11 12/11/11
f 15/17/12 11/16/12 10/15/12
f 19/20/14 15/10/14 10/19/14
f 20/21/15 19/20/15 10/19/15
f 21/24/16 19/23/16 20/22/16
f 2/4/17 20/22/17 1/25/17
f 22/26/18 21/24/18 20/22/18
f 2/4/19 22/26/19 20/22/19
f 4/5/20 22/26/20 2/4/20
f 23/27/21 8/13/21 9/14/21
f 24/20/22 6/10/22 8/19/22
f 23/21/23 24/20/23 8/19/23
f 25/24/24 24/23/24 23/22/24
f 26/26/25 5/8/25 6/10/25
f 26/26/27 27/29/27 5/8/27
f 28/30/28 27/29/28 26/26/28
f 29/3/29 22/26/29 4/5/29
f 30/13/30 21/24/30 22/26/30
f 29/3/31 30/13/31 22/26/31
f 31/31/32 30/13/32 29/3/32
f 32/33/33 19/20/33 21/32/33
f 35/8/37 11/9/37 15/10/37
f 35/8/39 39/7/39 11/9/39
f 40/5/40 39/4/40 35/6/40
f 43/3/41 42/2/41 41/1/41
f 44/35/42 25/24/42 42/13/42
f 43/37/43 44/33/43 42/36/43
f 28/30/44 44/33/44 43/37/44
f 45/11/45 43/3/45 41/1/45
f 46/13/46 28/12/46 43/3/46
f 45/11/47 46/13/47 43/3/47
f 31/14/48 46/13/48 45/11/48
f 47/15/49 45/11/49 41/1/49
f 48/16/50 31/14/50 45/11/50
f 47/15/51 48/16/51 45/11/51
f 34/17/52 48/16/52 47/15/52
f 49/18/53 47/15/53 41/1/53
f 50/29/54 34/30/54 47/38/54
f 49/39/55 50/29/55 47/38/55
f 40/5/56 50/40/56 49/3/56
f 42/13/57 49/3/57 41/31/57
f 51/26/58 40/5/58 49/3/58
f 42/13/59 51/26/59 49/3/59
f 25/24/60 51/26/60 42/13/60
f 26/26/61 44/33/61 28/30/61
f 26/26/63 24/20/63 44/33/63
f 6/10/64 24/20/64 26/26/64
f 29/27/65 46/13/65 31/14/65
f 27/29/66 28/30/66 46/38/66
f 29/39/67 27/29/67 46/38/67
f 4/5/68 27/40/68 29/3/68
f 32/33/69 48/37/69 34/30/69
f 30/34/70 31/14/70 48/16/70
f 32/33/71 30/36/71 48/37/71
f 21/24/72 30/13/72 32/35/72
f 35/8/73 50/29/73 40/28/73
f 23/22/77 51/26/77 25/24/77
f 39/4/78 40/5/78 51/26/78
f 23/22/79 39/4/79 51/26/79
f 9/25/80 39/4/80 23/22/80
f 53/44/81 11/42/81 7/41/81
f 7/41/81 52/43/81 53/44/81
f 54/48/82 10/46/82 11/45/82
f 11/45/82 53/47/82 54/48/82
f 52/52/83 7/50/83 10/49/83
f 10/49/83 54/51/83 52/52/83
f 13/80/90 53/78/90 52/77/90
f 52/77/90 12/79/90 13/80/90
f 14/84/91 54/82/91 53/81/91
f 53/81/91 13/83/91 14/84/91
f 12/88/92 52/86/92 54/85/92
f 54/85/92 14/87/92 12/88/92

usemtl SimpleNaturePack_BG
f 18/18/13 17/15/13 16/1/13
f 33/26/34 15/10/34 19/20/34
f 32/33/35 33/26/35 19/20/35
f 34/30/36 33/26/36 32/33/36
f 38/34/38 37/14/38 36/16/38
f 33/26/74 34/30/74 50/29/74
f 35/8/75 33/26/75 50/29/75
f 15/10/76 33/26/76 35/8/76
f 37/56/84 9/54/84 11/53/84
f 11/53/84 36/55/84 37/56/84
f 38/60/85 39/58/85 9/57/85
f 9/57/85 37/59/85 38/60/85
f 36/64/86 11/62/86 39/61/86
f 39/61/86 38/63/86 36/64/86
f 17/68/87 10/66/87 1/65/87
f 1/65/87 16/67/87 17/68/87
f 18/72/88 20/70/88 10/69/88
f 10/69/88 17/71/88 18/72/88
f 16/76/89 1/74/89 20/73/89
f 20/73/89 18/75/89 16/76/89

usemtl MountainMaterial
f 27/29/26 4/28/26 5/8/26
f 24/20/62 25/32/62 44/33/62

